<svg width="58" height="24" viewBox="0 0 58 24" fill="none" xmlns="http://www.w3.org/2000/svg" xmlns:xlink="http://www.w3.org/1999/xlink">
<path d="M8.641,22.514C14.017,22.514 17.21,18.31 17.21,11.19C17.21,8.51 16.697,6.254 15.716,4.511C14.295,1.801 11.849,0.336 8.758,0.336C4.158,0.336 0.906,3.427 0.906,7.763C0.906,11.835 3.836,14.794 7.864,14.794C10.34,14.794 12.347,13.637 13.343,11.63L13.387,11.63C13.387,11.63 13.445,11.63 13.46,11.63C13.489,11.63 13.592,11.63 13.592,11.63C13.592,16.464 11.761,19.35 8.67,19.35C6.854,19.35 5.447,18.354 4.964,16.757L1.199,16.757C1.829,20.229 4.773,22.514 8.641,22.514ZM8.772,11.791C6.341,11.791 4.612,10.062 4.612,7.646C4.612,5.287 6.429,3.485 8.787,3.485C11.146,3.485 12.962,5.316 12.962,7.704C12.962,10.062 11.189,11.791 8.772,11.791Z" fill="#FFFFFF"/>
<path d="M23.392,22.309C24.784,22.309 25.736,21.313 25.736,19.994C25.736,18.661 24.784,17.68 23.392,17.68C22.015,17.68 21.048,18.661 21.048,19.994C21.048,21.313 22.015,22.309 23.392,22.309ZM23.392,11.322C24.784,11.322 25.736,10.341 25.736,9.022C25.736,7.689 24.784,6.708 23.392,6.708C22.015,6.708 21.048,7.689 21.048,9.022C21.048,10.341 22.015,11.322 23.392,11.322Z" fill="#FFFFFF"/>
<path d="M39.447,22.001L43.066,22.001L43.066,18.061L45.922,18.061L45.922,14.867L43.066,14.867L43.066,0.863L37.734,0.863C33.998,6.488 31.025,11.19 29.12,14.691L29.12,18.061L39.447,18.061L39.447,22.001ZM32.621,14.735C35.082,10.399 37.279,6.928 39.301,3.939L39.506,3.939L39.506,14.955L32.621,14.955L32.621,14.735Z" fill="#FFFFFF"/>
<path d="M53.979,22.001L57.759,22.001L57.759,0.863L53.994,0.863L48.471,4.73L48.471,8.363L53.73,4.672L53.979,4.672L53.979,22.001Z" fill="#FFFFFF"/>
</svg>
