<svg width="34" height="22" viewBox="0 0 34 22" fill="none" xmlns="http://www.w3.org/2000/svg" xmlns:xlink="http://www.w3.org/1999/xlink">
<path d="M31.333,-0.667L29.333,-0.667C28.228,-0.667 27.333,0.228 27.333,1.333L27.333,18.666C27.333,19.771 28.228,20.666 29.333,20.666L31.333,20.666C32.438,20.666 33.333,19.771 33.333,18.666L33.333,1.333C33.333,0.228 32.438,-0.667 31.333,-0.667ZM20,4L22,4C23.104,4 24,4.895 24,6L24,18.666C24,19.771 23.104,20.666 22,20.666L20,20.666C18.895,20.666 18,19.771 18,18.666L18,6C18,4.895 18.895,4 20,4ZM12.666,8.666L10.666,8.666C9.562,8.666 8.666,9.562 8.666,10.666L8.666,18.666C8.666,19.771 9.562,20.666 10.666,20.666L12.666,20.666C13.771,20.666 14.666,19.771 14.666,18.666L14.666,10.666C14.666,9.562 13.771,8.666 12.666,8.666ZM3.333,12.666L1.333,12.666C0.228,12.666 -0.667,13.562 -0.667,14.666L-0.667,18.666C-0.667,19.771 0.228,20.666 1.333,20.666L3.333,20.666C4.438,20.666 5.333,19.771 5.333,18.666L5.333,14.666C5.333,13.562 4.438,12.666 3.333,12.666Z" clip-rule="evenodd" fill-rule="evenodd" fill="#FFFFFF"/>
</svg>
