<svg width="34" height="22" viewBox="0 0 34 22" fill="none" xmlns="http://www.w3.org/2000/svg" xmlns:xlink="http://www.w3.org/1999/xlink">
<path d="M31.334,-0.668L29.334,-0.668C28.229,-0.668 27.334,0.227 27.334,1.332L27.334,18.665C27.334,19.77 28.229,20.665 29.334,20.665L31.334,20.665C32.439,20.665 33.334,19.77 33.334,18.665L33.334,1.332C33.334,0.227 32.439,-0.668 31.334,-0.668ZM20.001,3.999L22.001,3.999C23.105,3.999 24.001,4.894 24.001,5.999L24.001,18.665C24.001,19.77 23.105,20.665 22.001,20.665L20.001,20.665C18.896,20.665 18.001,19.77 18.001,18.665L18.001,5.999C18.001,4.894 18.896,3.999 20.001,3.999ZM12.667,8.665L10.667,8.665C9.563,8.665 8.667,9.561 8.667,10.665L8.667,18.665C8.667,19.77 9.563,20.665 10.667,20.665L12.667,20.665C13.772,20.665 14.667,19.77 14.667,18.665L14.667,10.665C14.667,9.561 13.772,8.665 12.667,8.665ZM3.334,12.665L1.334,12.665C0.229,12.665 -0.666,13.561 -0.666,14.665L-0.666,18.665C-0.666,19.77 0.229,20.665 1.334,20.665L3.334,20.665C4.439,20.665 5.334,19.77 5.334,18.665L5.334,14.665C5.334,13.561 4.439,12.665 3.334,12.665Z" clip-rule="evenodd" fill-rule="evenodd" fill="#FFFFFF"/>
</svg>
