<svg width="34" height="22" viewBox="0 0 34 22" fill="none" xmlns="http://www.w3.org/2000/svg" xmlns:xlink="http://www.w3.org/1999/xlink">
<path d="M31.332,-0.668L29.332,-0.668C28.227,-0.668 27.332,0.227 27.332,1.332L27.332,18.665C27.332,19.77 28.227,20.665 29.332,20.665L31.332,20.665C32.437,20.665 33.332,19.77 33.332,18.665L33.332,1.332C33.332,0.227 32.437,-0.668 31.332,-0.668ZM19.999,3.999L21.999,3.999C23.103,3.999 23.999,4.894 23.999,5.999L23.999,18.665C23.999,19.77 23.103,20.665 21.999,20.665L19.999,20.665C18.894,20.665 17.999,19.77 17.999,18.665L17.999,5.999C17.999,4.894 18.894,3.999 19.999,3.999ZM12.665,8.665L10.665,8.665C9.561,8.665 8.665,9.561 8.665,10.665L8.665,18.665C8.665,19.77 9.561,20.665 10.665,20.665L12.665,20.665C13.77,20.665 14.665,19.77 14.665,18.665L14.665,10.665C14.665,9.561 13.77,8.665 12.665,8.665ZM3.332,12.665L1.332,12.665C0.227,12.665 -0.668,13.561 -0.668,14.665L-0.668,18.665C-0.668,19.77 0.227,20.665 1.332,20.665L3.332,20.665C4.437,20.665 5.332,19.77 5.332,18.665L5.332,14.665C5.332,13.561 4.437,12.665 3.332,12.665Z" clip-rule="evenodd" fill-rule="evenodd" fill="#FFFFFF"/>
</svg>
