<svg width="50" height="42" viewBox="0 0 50 42" fill="none" xmlns="http://www.w3.org/2000/svg" xmlns:xlink="http://www.w3.org/1999/xlink">
<path d="M24.195,2.798C30.839,2.798 31.626,2.823 34.238,2.921C36.667,3.011 37.978,3.354 38.852,3.64C40.008,4.015 40.843,4.473 41.708,5.199C42.582,5.934 43.116,6.628 43.563,7.6C43.903,8.335 44.311,9.446 44.418,11.479C44.534,13.684 44.563,14.346 44.563,19.923C44.563,25.509 44.534,26.171 44.418,28.367C44.311,30.409 43.903,31.511 43.563,32.246C43.116,33.218 42.572,33.92 41.708,34.647C40.834,35.382 40.008,35.831 38.852,36.207C37.978,36.493 36.657,36.836 34.238,36.926C31.616,37.024 30.829,37.048 24.195,37.048C17.551,37.048 16.764,37.024 14.151,36.926C11.723,36.836 10.412,36.493 9.538,36.207C8.382,35.831 7.546,35.374 6.682,34.647C5.808,33.912 5.274,33.218 4.827,32.246C4.487,31.511 4.079,30.401 3.972,28.367C3.855,26.162 3.826,25.501 3.826,19.923C3.826,14.337 3.855,13.676 3.972,11.479C4.079,9.438 4.487,8.335 4.827,7.6C5.274,6.628 5.818,5.926 6.682,5.199C7.556,4.464 8.382,4.015 9.538,3.64C10.412,3.354 11.733,3.011 14.151,2.921C16.764,2.823 17.551,2.798 24.195,2.798ZM24.195,-0.966C17.444,-0.966 16.599,-0.942 13.947,-0.844C11.305,-0.746 9.489,-0.386 7.916,0.128C6.274,0.667 4.885,1.377 3.506,2.545C2.117,3.705 1.272,4.873 0.631,6.245C0.019,7.576 -0.409,9.095 -0.525,11.316C-0.642,13.553 -0.671,14.264 -0.671,19.94C-0.671,25.615 -0.642,26.326 -0.525,28.555C-0.409,30.776 0.019,32.303 0.631,33.626C1.272,35.007 2.117,36.174 3.506,37.334C4.885,38.494 6.274,39.212 7.906,39.743C9.489,40.257 11.296,40.617 13.938,40.715C16.589,40.813 17.434,40.837 24.185,40.837C30.936,40.837 31.781,40.813 34.433,40.715C37.075,40.617 38.891,40.257 40.465,39.743C42.096,39.212 43.485,38.494 44.865,37.334C46.244,36.174 47.099,35.007 47.73,33.635C48.342,32.303 48.769,30.785 48.886,28.563C49.002,26.334 49.032,25.623 49.032,19.948C49.032,14.272 49.002,13.562 48.886,11.332C48.769,9.111 48.342,7.584 47.73,6.261C47.118,4.873 46.273,3.705 44.884,2.545C43.505,1.386 42.116,0.667 40.484,0.136C38.901,-0.378 37.094,-0.738 34.452,-0.836C31.791,-0.942 30.946,-0.966 24.195,-0.966Z" fill="#000100"/>
<path d="M24.195,9.201C17.143,9.201 11.422,14.011 11.422,19.94C11.422,25.868 17.143,30.678 24.195,30.678C31.246,30.678 36.967,25.868 36.967,19.94C36.967,14.011 31.246,9.201 24.195,9.201ZM24.195,26.905C19.62,26.905 15.909,23.786 15.909,19.94C15.909,16.093 19.62,12.974 24.195,12.974C28.77,12.974 32.48,16.093 32.48,19.94C32.48,23.786 28.77,26.905 24.195,26.905Z" fill="#000100"/>
<path d="M40.455,8.776C40.455,10.165 39.115,11.283 37.473,11.283C35.822,11.283 34.491,10.156 34.491,8.776C34.491,7.388 35.832,6.269 37.473,6.269C39.115,6.269 40.455,7.396 40.455,8.776Z" fill="#000100"/>
</svg>
