<svg width="50" height="42" viewBox="0 0 50 42" fill="none" xmlns="http://www.w3.org/2000/svg" xmlns:xlink="http://www.w3.org/1999/xlink">
<path d="M48.938,9.81C48.656,8.92 48.102,8.108 47.331,7.455C46.559,6.803 45.597,6.332 44.541,6.089C40.653,5.21 25.112,5.21 25.112,5.21C25.112,5.21 9.571,5.21 5.683,6.089C4.626,6.332 3.664,6.803 2.893,7.455C2.121,8.108 1.567,8.92 1.286,9.81C0.246,13.093 0.246,19.94 0.246,19.94C0.246,19.94 0.246,26.786 1.286,30.069C1.567,30.959 2.121,31.771 2.893,32.424C3.664,33.076 4.626,33.548 5.683,33.79C9.571,34.669 25.112,34.669 25.112,34.669C25.112,34.669 40.653,34.669 44.541,33.79C45.597,33.548 46.559,33.076 47.331,32.424C48.102,31.771 48.656,30.959 48.938,30.069C49.978,26.786 49.977,19.94 49.977,19.94C49.977,19.94 49.978,13.093 48.938,9.81Z" fill="#FF0302"/>
<path d="M20.026,26.157L20.026,13.722L33.024,19.94L20.026,26.157Z" fill="#FEFEFE"/>
</svg>
