<svg width="74" height="62" viewBox="0 0 74 62" fill="none" xmlns="http://www.w3.org/2000/svg" xmlns:xlink="http://www.w3.org/1999/xlink">
<path d="M72,30.267C72,13.551 55.882,0 36,0C16.118,0 0,13.551 0,30.267C0,44.461 11.624,56.372 27.304,59.643L27.304,39.516L19.881,39.516L19.881,30.267L27.304,30.267L27.304,26.281C27.304,15.98 32.849,11.205 44.879,11.205C47.16,11.205 51.096,11.581 52.705,11.957L52.705,20.341C51.856,20.266 50.38,20.228 48.547,20.228C42.644,20.228 40.363,22.108 40.363,26.996L40.363,30.267L52.122,30.267L50.102,39.516L40.363,39.516L40.363,60.312C58.189,58.502 72.001,45.742 72.001,30.267L72,30.267Z" fill="#0866FF"/>
<path d="M50.1,39.516L52.121,30.267L40.362,30.267L40.362,26.996C40.362,22.108 42.643,20.228 48.545,20.228C50.378,20.228 51.854,20.266 52.704,20.341L52.704,11.957C51.094,11.58 47.158,11.205 44.877,11.205C32.848,11.205 27.302,15.98 27.302,26.281L27.302,30.267L19.879,30.267L19.879,39.516L27.302,39.516L27.302,59.643C30.087,60.224 33,60.534 35.998,60.534C37.474,60.534 38.93,60.458 40.36,60.312L40.36,39.516L50.099,39.516L50.1,39.516Z" fill="#FFFFFF"/>
</svg>
