<svg width="74" height="62" viewBox="0 0 74 62" fill="none" xmlns="http://www.w3.org/2000/svg" xmlns:xlink="http://www.w3.org/1999/xlink">
<path d="M72,30.267C72,13.551 55.882,0 36,0C16.118,0 0,13.551 0,30.267C0,44.461 11.624,56.372 27.304,59.643L27.304,39.516L19.881,39.516L19.881,30.267L27.304,30.267L27.304,26.281C27.304,15.98 32.849,11.205 44.879,11.205C47.16,11.205 51.096,11.581 52.705,11.957L52.705,20.341C51.856,20.266 50.38,20.228 48.547,20.228C42.644,20.228 40.363,22.108 40.363,26.996L40.363,30.267L52.122,30.267L50.102,39.516L40.363,39.516L40.363,60.312C58.189,58.502 72.001,45.742 72.001,30.267L72,30.267Z" fill="#0866FF"/>
<path d="M50.104,39.515L52.124,30.265L40.365,30.265L40.365,26.994C40.365,22.106 42.646,20.226 48.549,20.226C50.382,20.226 51.858,20.264 52.708,20.339L52.708,11.955C51.098,11.578 47.162,11.203 44.881,11.203C32.851,11.203 27.306,15.978 27.306,26.28L27.306,30.265L19.883,30.265L19.883,39.515L27.306,39.515L27.306,59.641C30.091,60.222 33.004,60.532 36.002,60.532C37.478,60.532 38.934,60.456 40.364,60.311L40.364,39.515L50.103,39.515L50.104,39.515Z" fill="#FFFFFF"/>
</svg>
