<svg width="52" height="42" viewBox="0 0 52 42" fill="none" xmlns="http://www.w3.org/2000/svg" xmlns:xlink="http://www.w3.org/1999/xlink">
<path d="M50.694,19.94C50.694,8.394 39.561,-0.966 25.829,-0.966C12.096,-0.966 0.963,8.394 0.963,19.94C0.963,29.744 8.992,37.97 19.822,40.23L19.822,26.328L14.695,26.328L14.695,19.94L19.822,19.94L19.822,17.187C19.822,10.071 23.652,6.773 31.961,6.773C33.537,6.773 36.255,7.033 37.367,7.292L37.367,13.083C36.78,13.031 35.761,13.006 34.495,13.006C30.418,13.006 28.842,14.304 28.842,17.68L28.842,19.94L36.964,19.94L35.569,26.328L28.842,26.328L28.842,40.692C41.155,39.442 50.695,30.628 50.695,19.94L50.694,19.94Z" fill="#0866FF"/>
<path d="M35.568,26.328L36.963,19.94L28.841,19.94L28.841,17.68C28.841,14.304 30.416,13.006 34.493,13.006C35.76,13.006 36.779,13.031 37.366,13.083L37.366,7.292C36.254,7.032 33.536,6.773 31.96,6.773C23.651,6.773 19.821,10.071 19.821,17.187L19.821,19.94L14.693,19.94L14.693,26.328L19.821,26.328L19.821,40.23C21.744,40.631 23.756,40.846 25.827,40.846C26.847,40.846 27.852,40.793 28.84,40.692L28.84,26.328L35.567,26.328L35.568,26.328Z" fill="#FFFFFF"/>
</svg>
