<svg width="74" height="62" viewBox="0 0 74 62" fill="none" xmlns="http://www.w3.org/2000/svg" xmlns:xlink="http://www.w3.org/1999/xlink">
<path d="M70.565,15.6C70.158,14.312 69.356,13.137 68.239,12.192C67.121,11.246 65.729,10.564 64.199,10.214C58.57,8.941 36.07,8.941 36.07,8.941C36.07,8.941 13.57,8.941 7.941,10.214C6.412,10.564 5.019,11.246 3.902,12.192C2.785,13.137 1.983,14.312 1.576,15.6C0.07,20.353 0.07,30.266 0.07,30.266C0.07,30.266 0.07,40.178 1.576,44.932C1.983,46.219 2.785,47.395 3.902,48.34C5.019,49.285 6.412,49.967 7.941,50.318C13.57,51.59 36.07,51.59 36.07,51.59C36.07,51.59 58.57,51.59 64.199,50.318C65.729,49.967 67.121,49.285 68.239,48.34C69.356,47.395 70.158,46.219 70.565,44.932C72.07,40.178 72.07,30.266 72.07,30.266C72.07,30.266 72.07,20.353 70.565,15.6Z" fill="#FF0302"/>
<path d="M28.711,39.268L28.711,21.266L47.529,30.267L28.711,39.268Z" fill="#FEFEFE"/>
</svg>
