<svg width="34" height="28" viewBox="0 0 34 28" fill="none" xmlns="http://www.w3.org/2000/svg" xmlns:xlink="http://www.w3.org/1999/xlink">
<path d="M16.514,3.218C20.829,3.218 21.34,3.233 23.037,3.297C24.614,3.355 25.465,3.578 26.033,3.764C26.784,4.008 27.326,4.305 27.888,4.777C28.456,5.254 28.803,5.705 29.093,6.336C29.313,6.813 29.578,7.535 29.648,8.855C29.724,10.287 29.742,10.717 29.742,14.339C29.742,17.967 29.724,18.396 29.648,19.823C29.578,21.149 29.313,21.865 29.093,22.342C28.803,22.973 28.449,23.43 27.888,23.902C27.32,24.379 26.784,24.671 26.033,24.915C25.465,25.1 24.608,25.323 23.037,25.381C21.334,25.445 20.823,25.461 16.514,25.461C12.199,25.461 11.688,25.445 9.992,25.381C8.414,25.323 7.563,25.1 6.995,24.915C6.244,24.671 5.702,24.374 5.141,23.902C4.573,23.424 4.226,22.973 3.936,22.342C3.715,21.865 3.45,21.144 3.381,19.823C3.305,18.391 3.286,17.962 3.286,14.339C3.286,10.712 3.305,10.282 3.381,8.855C3.45,7.529 3.715,6.813 3.936,6.336C4.226,5.705 4.579,5.249 5.141,4.777C5.708,4.299 6.244,4.008 6.995,3.764C7.563,3.578 8.421,3.355 9.992,3.297C11.688,3.233 12.199,3.218 16.514,3.218ZM16.514,0.773C12.13,0.773 11.581,0.788 9.859,0.852C8.143,0.916 6.964,1.149 5.942,1.483C4.876,1.833 3.974,2.295 3.078,3.053C2.176,3.806 1.627,4.565 1.211,5.456C0.813,6.32 0.536,7.307 0.46,8.749C0.384,10.202 0.365,10.664 0.365,14.35C0.365,18.036 0.384,18.497 0.46,19.945C0.536,21.388 0.813,22.379 1.211,23.239C1.627,24.135 2.176,24.893 3.078,25.646C3.974,26.4 4.876,26.866 5.935,27.211C6.964,27.545 8.137,27.779 9.853,27.842C11.575,27.906 12.124,27.922 16.508,27.922C20.892,27.922 21.441,27.906 23.163,27.842C24.879,27.779 26.058,27.545 27.08,27.211C28.14,26.866 29.042,26.4 29.938,25.646C30.834,24.893 31.389,24.135 31.799,23.244C32.196,22.379 32.474,21.393 32.55,19.95C32.625,18.503 32.644,18.041 32.644,14.355C32.644,10.669 32.625,10.208 32.55,8.76C32.474,7.317 32.196,6.325 31.799,5.466C31.401,4.565 30.853,3.806 29.951,3.053C29.055,2.3 28.153,1.833 27.093,1.489C26.065,1.154 24.891,0.921 23.176,0.857C21.447,0.788 20.898,0.773 16.514,0.773Z" fill="#000100"/>
<path d="M16.514,7.376C11.934,7.376 8.219,10.499 8.219,14.35C8.219,18.2 11.934,21.324 16.514,21.324C21.094,21.324 24.809,18.2 24.809,14.35C24.809,10.499 21.094,7.376 16.514,7.376ZM16.514,18.874C13.543,18.874 11.133,16.848 11.133,14.35C11.133,11.852 13.543,9.826 16.514,9.826C19.485,9.826 21.895,11.852 21.895,14.35C21.895,16.848 19.485,18.874 16.514,18.874Z" fill="#000100"/>
<path d="M27.074,7.1C27.074,8.001 26.204,8.728 25.138,8.728C24.065,8.728 23.201,7.996 23.201,7.1C23.201,6.198 24.072,5.472 25.138,5.472C26.204,5.472 27.074,6.203 27.074,7.1Z" fill="#000100"/>
</svg>
