<svg width="74" height="62" viewBox="0 0 74 62" fill="none" xmlns="http://www.w3.org/2000/svg" xmlns:xlink="http://www.w3.org/1999/xlink">
<path d="M70.566,15.601C70.159,14.313 69.356,13.138 68.239,12.193C67.122,11.247 65.729,10.565 64.2,10.215C58.571,8.942 36.071,8.942 36.071,8.942C36.071,8.942 13.571,8.942 7.942,10.215C6.413,10.565 5.02,11.247 3.903,12.193C2.786,13.138 1.984,14.313 1.577,15.601C0.071,20.354 0.071,30.267 0.071,30.267C0.071,30.267 0.071,40.179 1.577,44.933C1.984,46.22 2.786,47.396 3.903,48.341C5.02,49.286 6.413,49.968 7.942,50.319C13.571,51.591 36.071,51.591 36.071,51.591C36.071,51.591 58.571,51.591 64.2,50.319C65.729,49.968 67.122,49.286 68.239,48.341C69.356,47.396 70.159,46.22 70.566,44.933C72.071,40.179 72.071,30.267 72.071,30.267C72.071,30.267 72.071,20.354 70.566,15.601Z" fill="#FF0302"/>
<path d="M28.708,39.268L28.708,21.266L47.526,30.267L28.708,39.268Z" fill="#FEFEFE"/>
</svg>
