<svg width="32" height="28" viewBox="0 0 32 28" fill="none" xmlns="http://www.w3.org/2000/svg" xmlns:xlink="http://www.w3.org/1999/xlink">
<path d="M31.586,12.967C31.586,5.468 24.356,-0.611 15.437,-0.611C6.518,-0.611 -0.712,5.468 -0.712,12.967C-0.712,19.334 4.502,24.677 11.536,26.144L11.536,17.116L8.206,17.116L8.206,12.967L11.536,12.967L11.536,11.179C11.536,6.558 14.024,4.416 19.42,4.416C20.443,4.416 22.209,4.585 22.931,4.753L22.931,8.514C22.55,8.48 21.888,8.463 21.065,8.463C18.418,8.463 17.394,9.307 17.394,11.499L17.394,12.967L22.669,12.967L21.763,17.116L17.394,17.116L17.394,26.444C25.391,25.633 31.587,19.908 31.587,12.967L31.586,12.967Z" fill="#0866FF"/>
<path d="M21.762,17.116L22.668,12.967L17.393,12.967L17.393,11.499C17.393,9.307 18.416,8.463 21.064,8.463C21.886,8.463 22.549,8.48 22.93,8.514L22.93,4.753C22.208,4.584 20.442,4.416 19.419,4.416C14.023,4.416 11.535,6.558 11.535,11.179L11.535,12.967L8.205,12.967L8.205,17.116L11.535,17.116L11.535,26.144C12.784,26.405 14.091,26.544 15.436,26.544C16.098,26.544 16.751,26.51 17.393,26.445L17.393,17.116L21.761,17.116L21.762,17.116Z" fill="#FFFFFF"/>
</svg>
