<svg width="34" height="28" viewBox="0 0 34 28" fill="none" xmlns="http://www.w3.org/2000/svg" xmlns:xlink="http://www.w3.org/1999/xlink">
<path d="M31.969,7.08C31.787,6.502 31.427,5.975 30.926,5.551C30.425,5.127 29.8,4.821 29.114,4.663C26.589,4.093 16.496,4.093 16.496,4.093C16.496,4.093 6.403,4.093 3.877,4.663C3.191,4.821 2.567,5.127 2.066,5.551C1.564,5.975 1.205,6.502 1.022,7.08C0.347,9.212 0.347,13.658 0.347,13.658C0.347,13.658 0.347,18.105 1.022,20.237C1.205,20.815 1.564,21.342 2.066,21.766C2.567,22.19 3.191,22.496 3.877,22.653C6.403,23.224 16.496,23.224 16.496,23.224C16.496,23.224 26.589,23.224 29.114,22.653C29.8,22.496 30.425,22.19 30.926,21.766C31.427,21.342 31.787,20.815 31.969,20.237C32.645,18.105 32.645,13.658 32.645,13.658C32.645,13.658 32.645,9.212 31.969,7.08Z" fill="#FF0302"/>
<path d="M13.192,17.696L13.192,9.621L21.634,13.658L13.192,17.696Z" fill="#FEFEFE"/>
</svg>
