<svg width="38" height="38" viewBox="0 0 38 38" fill="none" xmlns="http://www.w3.org/2000/svg" xmlns:xlink="http://www.w3.org/1999/xlink">
<path d="M36.333,18C36.333,7.88 28.12,-0.333 18,-0.333C7.88,-0.333 -0.333,7.88 -0.333,18C-0.333,26.873 5.973,34.262 14.333,35.967L14.333,23.5L10.667,23.5L10.667,18L14.333,18L14.333,13.417C14.333,9.878 17.212,7 20.75,7L25.333,7L25.333,12.5L21.667,12.5C20.658,12.5 19.833,13.325 19.833,14.333L19.833,18L25.333,18L25.333,23.5L19.833,23.5L19.833,36.242C29.092,35.325 36.333,27.515 36.333,18Z" fill="#FFFFFF"/>
</svg>
