<svg width="44" height="42" viewBox="0 0 44 42" fill="none" xmlns="http://www.w3.org/2000/svg" xmlns:xlink="http://www.w3.org/1999/xlink">
<path d="M11.398,34.599L5.898,33.399C5.398,33.299 4.998,33.041 4.698,32.623C4.398,32.207 4.282,31.749 4.348,31.249L4.898,25.599L1.148,21.299C0.815,20.933 0.648,20.499 0.648,19.999C0.648,19.499 0.815,19.066 1.148,18.699L4.898,14.399L4.348,8.749C4.282,8.249 4.398,7.791 4.698,7.375C4.998,6.958 5.398,6.699 5.898,6.599L11.398,5.399L14.298,0.499C14.565,0.066 14.932,-0.217 15.398,-0.351C15.865,-0.484 16.332,-0.467 16.798,-0.301L21.998,1.899L27.198,-0.301C27.665,-0.467 28.132,-0.484 28.598,-0.351C29.065,-0.217 29.432,0.066 29.698,0.499L32.598,5.399L38.098,6.599C38.598,6.699 38.998,6.958 39.298,7.375C39.598,7.791 39.715,8.249 39.648,8.749L39.098,14.399L42.848,18.699C43.182,19.066 43.348,19.499 43.348,19.999C43.348,20.499 43.182,20.933 42.848,21.299L39.098,25.599L39.648,31.249C39.715,31.749 39.598,32.207 39.298,32.623C38.998,33.041 38.598,33.299 38.098,33.399L32.598,34.599L29.698,39.499C29.432,39.933 29.065,40.216 28.598,40.349C28.132,40.483 27.665,40.466 27.198,40.299L21.998,38.099L16.798,40.299C16.332,40.466 15.865,40.483 15.398,40.349C14.932,40.216 14.565,39.933 14.298,39.499L11.398,34.599ZM18.498,25.699C18.865,26.066 19.332,26.249 19.898,26.249C20.465,26.249 20.932,26.066 21.298,25.699L29.798,17.199C30.198,16.799 30.398,16.324 30.398,15.773C30.398,15.224 30.198,14.749 29.798,14.349C29.398,13.949 28.924,13.749 28.374,13.749C27.824,13.749 27.348,13.949 26.948,14.349L19.898,21.399L16.998,18.549C16.598,18.183 16.124,18.007 15.574,18.023C15.024,18.041 14.565,18.233 14.198,18.599C13.832,18.966 13.648,19.433 13.648,19.999C13.648,20.566 13.832,21.033 14.198,21.399L18.498,25.699Z" fill="#000000"/>
</svg>
