<svg width="22" height="14" viewBox="0 0 22 14" fill="none" xmlns="http://www.w3.org/2000/svg" xmlns:xlink="http://www.w3.org/1999/xlink">
<path d="M10.752,12.549C10.485,12.549 10.227,12.499 9.978,12.399C9.727,12.299 9.518,12.166 9.352,11.999L0.152,2.799C-0.215,2.433 -0.398,1.966 -0.398,1.399C-0.398,0.833 -0.215,0.366 0.152,-0.001C0.518,-0.367 0.985,-0.551 1.552,-0.551C2.118,-0.551 2.585,-0.367 2.952,-0.001L10.752,7.799L18.552,-0.001C18.918,-0.367 19.385,-0.551 19.952,-0.551C20.518,-0.551 20.985,-0.367 21.352,-0.001C21.718,0.366 21.902,0.833 21.902,1.399C21.902,1.966 21.718,2.433 21.352,2.799L12.152,11.999C11.952,12.199 11.735,12.341 11.502,12.423C11.268,12.507 11.018,12.549 10.752,12.549Z" fill="#000000"/>
</svg>
