<svg width="62" height="62" viewBox="0 0 62 62" fill="none" xmlns="http://www.w3.org/2000/svg" xmlns:xlink="http://www.w3.org/1999/xlink">
<path d="M44.311,38.994L41.511,38.994L40.518,38.037C43.992,33.995 46.083,28.749 46.083,23.042C46.083,10.316 35.768,0 23.042,0C10.316,0 0,10.316 0,23.042C0,35.768 10.316,46.083 23.042,46.083C28.749,46.083 33.995,43.992 38.037,40.518L38.994,41.511L38.994,44.311L56.718,62L62,56.718L44.311,38.994ZM23.042,38.994C14.215,38.994 7.09,31.868 7.09,23.042C7.09,14.215 14.215,7.09 23.042,7.09C31.868,7.09 38.994,14.215 38.994,23.042C38.994,31.868 31.868,38.994 23.042,38.994Z" fill="#000000"/>
</svg>
