<svg width="16" height="10" viewBox="0 0 16 10" fill="none" xmlns="http://www.w3.org/2000/svg" xmlns:xlink="http://www.w3.org/1999/xlink">
<path d="M7.414,8.667C7.23,8.667 7.052,8.633 6.88,8.564C6.707,8.495 6.562,8.403 6.447,8.287L0.093,1.933C-0.16,1.68 -0.287,1.357 -0.287,0.966C-0.287,0.574 -0.16,0.252 0.093,-0.001C0.346,-0.254 0.668,-0.381 1.06,-0.381C1.451,-0.381 1.774,-0.254 2.027,-0.001L7.414,5.386L12.802,-0.001C13.055,-0.254 13.378,-0.381 13.769,-0.381C14.16,-0.381 14.483,-0.254 14.736,-0.001C14.989,0.252 15.116,0.574 15.116,0.966C15.116,1.357 14.989,1.68 14.736,1.933L8.381,8.287C8.243,8.426 8.094,8.523 7.932,8.58C7.771,8.638 7.599,8.667 7.414,8.667Z" fill="#000000"/>
</svg>
