<svg width="40" height="42" viewBox="0 0 40 42" fill="none" xmlns="http://www.w3.org/2000/svg" xmlns:xlink="http://www.w3.org/1999/xlink">
<path d="M7.7,31.2C9.4,29.9 11.3,28.875 13.4,28.124C15.5,27.375 17.7,27 20,27C22.3,27 24.5,27.375 26.6,28.124C28.7,28.875 30.6,29.9 32.3,31.2C33.467,29.833 34.375,28.283 35.026,26.55C35.675,24.817 36,22.967 36,21C36,16.567 34.442,12.791 31.326,9.674C28.209,6.558 24.433,5 20,5C15.567,5 11.792,6.558 8.676,9.674C5.559,12.791 4,16.567 4,21C4,22.967 4.325,24.817 4.976,26.55C5.625,28.283 6.533,29.833 7.7,31.2ZM20,23C18.033,23 16.375,22.325 15.024,20.976C13.675,19.625 13,17.967 13,16C13,14.033 13.675,12.375 15.024,11.024C16.375,9.675 18.033,9 20,9C21.967,9 23.625,9.675 24.976,11.024C26.325,12.375 27,14.033 27,16C27,17.967 26.325,19.625 24.976,20.976C23.625,22.325 21.967,23 20,23ZM20,41C17.233,41 14.633,40.475 12.2,39.424C9.767,38.375 7.65,36.95 5.85,35.15C4.05,33.35 2.625,31.233 1.576,28.8C0.525,26.367 0,23.767 0,21C0,18.233 0.525,15.633 1.576,13.2C2.625,10.767 4.05,8.65 5.85,6.85C7.65,5.05 9.767,3.625 12.2,2.574C14.633,1.525 17.233,1 20,1C22.767,1 25.367,1.525 27.8,2.574C30.233,3.625 32.35,5.05 34.15,6.85C35.95,8.65 37.375,10.767 38.424,13.2C39.475,15.633 40,18.233 40,21C40,23.767 39.475,26.367 38.424,28.8C37.375,31.233 35.95,33.35 34.15,35.15C32.35,36.95 30.233,38.375 27.8,39.424C25.367,40.475 22.767,41 20,41Z" fill="#000000"/>
</svg>
