<svg width="24" height="14" viewBox="0 0 24 14" fill="none" xmlns="http://www.w3.org/2000/svg" xmlns:xlink="http://www.w3.org/1999/xlink">
<path d="M11.15,12.55C10.883,12.55 10.625,12.5 10.376,12.4C10.125,12.3 9.917,12.167 9.75,12L0.55,2.8C0.183,2.433 0,1.967 0,1.4C0,0.833 0.183,0.367 0.55,0C0.917,-0.367 1.383,-0.55 1.95,-0.55C2.517,-0.55 2.983,-0.367 3.35,0L11.15,7.8L18.95,0C19.317,-0.367 19.783,-0.55 20.35,-0.55C20.917,-0.55 21.383,-0.367 21.75,0C22.117,0.367 22.3,0.833 22.3,1.4C22.3,1.967 22.117,2.433 21.75,2.8L12.55,12C12.35,12.2 12.133,12.341 11.9,12.424C11.667,12.508 11.417,12.55 11.15,12.55Z" fill="#000000"/>
</svg>
