<svg width="20" height="20" viewBox="0 0 20 20" fill="none" xmlns="http://www.w3.org/2000/svg" xmlns:xlink="http://www.w3.org/1999/xlink">
<path d="M10,12.8L4.166,18.65C3.797,19.016 3.328,19.2 2.758,19.2C2.188,19.2 1.719,19.016 1.35,18.65C0.983,18.283 0.8,17.816 0.8,17.25C0.8,16.683 0.983,16.216 1.35,15.85L7.2,10L1.35,4.216C0.983,3.847 0.8,3.378 0.8,2.808C0.8,2.238 0.983,1.768 1.35,1.4C1.716,1.033 2.183,0.85 2.75,0.85C3.316,0.85 3.783,1.033 4.15,1.4L10,7.25L15.783,1.4C16.152,1.033 16.622,0.85 17.192,0.85C17.762,0.85 18.231,1.033 18.6,1.4C19,1.8 19.2,2.275 19.2,2.825C19.2,3.375 19,3.833 18.6,4.2L12.75,10L18.6,15.833C18.966,16.202 19.15,16.671 19.15,17.241C19.15,17.811 18.966,18.281 18.6,18.65C18.2,19.05 17.725,19.25 17.175,19.25C16.625,19.25 16.166,19.05 15.8,18.65L10,12.8Z" fill="#000000"/>
</svg>
