<svg width="28" height="30" viewBox="0 0 28 30" fill="none" xmlns="http://www.w3.org/2000/svg" xmlns:xlink="http://www.w3.org/1999/xlink">
<path d="M27.323,14.536C27.323,6.91 21.134,0.721 13.509,0.721C5.883,0.721 -0.306,6.91 -0.306,14.536C-0.306,21.222 4.446,26.789 10.746,28.074L10.746,18.68L7.983,18.68L7.983,14.536L10.746,14.536L10.746,11.082C10.746,8.416 12.915,6.247 15.581,6.247L19.034,6.247L19.034,10.391L16.271,10.391C15.512,10.391 14.89,11.013 14.89,11.773L14.89,14.536L19.034,14.536L19.034,18.68L14.89,18.68L14.89,28.281C21.866,27.59 27.323,21.705 27.323,14.536Z" fill="#FFFFFF"/>
</svg>
