<svg width="24" height="14" viewBox="0 0 24 14" fill="none" xmlns="http://www.w3.org/2000/svg" xmlns:xlink="http://www.w3.org/1999/xlink">
<path d="M11.15,12.549C10.883,12.549 10.625,12.499 10.376,12.399C10.125,12.299 9.917,12.166 9.75,11.999L0.55,2.799C0.183,2.433 0,1.966 0,1.399C0,0.833 0.183,0.366 0.55,-0.001C0.917,-0.367 1.383,-0.551 1.95,-0.551C2.517,-0.551 2.983,-0.367 3.35,-0.001L11.15,7.799L18.95,-0.001C19.317,-0.367 19.783,-0.551 20.35,-0.551C20.917,-0.551 21.383,-0.367 21.75,-0.001C22.117,0.366 22.3,0.833 22.3,1.399C22.3,1.966 22.117,2.433 21.75,2.799L12.55,11.999C12.35,12.199 12.133,12.341 11.9,12.423C11.667,12.507 11.417,12.549 11.15,12.549Z" fill="#000000"/>
</svg>
