<svg width="22" height="14" viewBox="0 0 22 14" fill="none" xmlns="http://www.w3.org/2000/svg" xmlns:xlink="http://www.w3.org/1999/xlink">
<path d="M10.751,12.549C10.485,12.549 10.227,12.499 9.977,12.399C9.727,12.299 9.518,12.166 9.351,11.999L0.151,2.799C-0.215,2.433 -0.399,1.966 -0.399,1.399C-0.399,0.833 -0.215,0.366 0.151,-0.001C0.518,-0.367 0.985,-0.551 1.551,-0.551C2.118,-0.551 2.585,-0.367 2.951,-0.001L10.751,7.799L18.551,-0.001C18.918,-0.367 19.385,-0.551 19.951,-0.551C20.518,-0.551 20.985,-0.367 21.351,-0.001C21.718,0.366 21.901,0.833 21.901,1.399C21.901,1.966 21.718,2.433 21.351,2.799L12.151,11.999C11.951,12.199 11.735,12.341 11.501,12.423C11.268,12.507 11.018,12.549 10.751,12.549Z" fill="#000000"/>
</svg>
