<svg width="10" height="8" viewBox="0 0 10 8" fill="none" xmlns="http://www.w3.org/2000/svg" xmlns:xlink="http://www.w3.org/1999/xlink">
<path d="M4.003,6.654C3.883,6.654 3.767,6.632 3.655,6.587C3.543,6.542 3.449,6.483 3.375,6.408L-0.752,2.281C-0.917,2.116 -0.999,1.907 -0.999,1.653C-0.999,1.399 -0.917,1.189 -0.752,1.025C-0.588,0.86 -0.378,0.778 -0.124,0.778C0.13,0.778 0.339,0.86 0.504,1.025L4.003,4.524L7.502,1.025C7.666,0.86 7.875,0.778 8.13,0.778C8.384,0.778 8.593,0.86 8.758,1.025C8.922,1.189 9.004,1.399 9.004,1.653C9.004,1.907 8.922,2.116 8.758,2.281L4.631,6.408C4.541,6.497 4.444,6.561 4.339,6.598C4.234,6.636 4.122,6.654 4.003,6.654Z" fill="#000000"/>
</svg>
