<svg width="44" height="42" viewBox="0 0 44 42" fill="none" xmlns="http://www.w3.org/2000/svg" xmlns:xlink="http://www.w3.org/1999/xlink">
<path d="M11.4,34.599L5.9,33.399C5.4,33.299 5,33.041 4.7,32.623C4.4,32.207 4.284,31.749 4.35,31.249L4.9,25.599L1.15,21.299C0.817,20.933 0.65,20.499 0.65,19.999C0.65,19.499 0.817,19.066 1.15,18.699L4.9,14.399L4.35,8.749C4.284,8.249 4.4,7.791 4.7,7.375C5,6.958 5.4,6.699 5.9,6.599L11.4,5.399L14.3,0.499C14.567,0.066 14.934,-0.217 15.4,-0.351C15.867,-0.484 16.334,-0.467 16.8,-0.301L22,1.899L27.2,-0.301C27.667,-0.467 28.134,-0.484 28.6,-0.351C29.067,-0.217 29.434,0.066 29.7,0.499L32.6,5.399L38.1,6.599C38.6,6.699 39,6.958 39.3,7.375C39.6,7.791 39.717,8.249 39.65,8.749L39.1,14.399L42.85,18.699C43.184,19.066 43.35,19.499 43.35,19.999C43.35,20.499 43.184,20.933 42.85,21.299L39.1,25.599L39.65,31.249C39.717,31.749 39.6,32.207 39.3,32.623C39,33.041 38.6,33.299 38.1,33.399L32.6,34.599L29.7,39.499C29.434,39.933 29.067,40.216 28.6,40.349C28.134,40.483 27.667,40.466 27.2,40.299L22,38.099L16.8,40.299C16.334,40.466 15.867,40.483 15.4,40.349C14.934,40.216 14.567,39.933 14.3,39.499L11.4,34.599ZM18.5,25.699C18.867,26.066 19.334,26.249 19.9,26.249C20.467,26.249 20.934,26.066 21.3,25.699L29.8,17.199C30.2,16.799 30.4,16.324 30.4,15.773C30.4,15.224 30.2,14.749 29.8,14.349C29.4,13.949 28.926,13.749 28.376,13.749C27.826,13.749 27.35,13.949 26.95,14.349L19.9,21.399L17,18.549C16.6,18.183 16.126,18.007 15.576,18.023C15.026,18.041 14.567,18.233 14.2,18.599C13.834,18.966 13.65,19.433 13.65,19.999C13.65,20.566 13.834,21.033 14.2,21.399L18.5,25.699Z" fill="#000000"/>
</svg>
