<svg width="38" height="40" viewBox="0 0 38 40" fill="none" xmlns="http://www.w3.org/2000/svg" xmlns:xlink="http://www.w3.org/1999/xlink">
<path d="M32.28,21.881C32.36,21.281 32.4,20.661 32.4,20.001C32.4,19.361 32.36,18.721 32.26,18.121L36.32,14.961C36.68,14.681 36.78,14.141 36.56,13.741L32.72,7.101C32.48,6.661 31.98,6.521 31.54,6.661L26.76,8.581C25.76,7.821 24.7,7.181 23.52,6.701L22.8,1.621C22.72,1.141 22.32,0.801 21.84,0.801L14.16,0.801C13.68,0.801 13.3,1.141 13.22,1.621L12.5,6.701C11.32,7.181 10.24,7.841 9.26,8.581L4.48,6.661C4.04,6.501 3.54,6.661 3.3,7.101L-0.52,13.741C-0.76,14.161 -0.68,14.681 -0.28,14.961L3.78,18.121C3.68,18.721 3.6,19.381 3.6,20.001C3.6,20.621 3.64,21.281 3.74,21.881L-0.32,25.041C-0.68,25.321 -0.78,25.861 -0.56,26.261L3.28,32.901C3.52,33.341 4.02,33.481 4.46,33.341L9.24,31.421C10.24,32.181 11.3,32.821 12.48,33.301L13.2,38.381C13.3,38.861 13.68,39.201 14.16,39.201L21.84,39.201C22.32,39.201 22.72,38.861 22.78,38.381L23.5,33.301C24.68,32.821 25.76,32.181 26.74,31.421L31.52,33.341C31.96,33.501 32.46,33.341 32.7,32.901L36.54,26.261C36.78,25.821 36.68,25.321 36.3,25.041L32.28,21.881ZM18,27.201C14.04,27.201 10.8,23.961 10.8,20.001C10.8,16.041 14.04,12.801 18,12.801C21.96,12.801 25.2,16.041 25.2,20.001C25.2,23.961 21.96,27.201 18,27.201Z" fill="#000000"/>
</svg>
