<svg width="20" height="20" viewBox="0 0 20 20" fill="none" xmlns="http://www.w3.org/2000/svg" xmlns:xlink="http://www.w3.org/1999/xlink">
<path d="M10.001,12.8L4.167,18.65C3.798,19.016 3.329,19.2 2.759,19.2C2.189,19.2 1.72,19.016 1.351,18.65C0.984,18.283 0.801,17.816 0.801,17.25C0.801,16.683 0.984,16.216 1.351,15.85L7.201,10L1.351,4.216C0.984,3.847 0.801,3.378 0.801,2.808C0.801,2.238 0.984,1.768 1.351,1.4C1.717,1.033 2.184,0.85 2.751,0.85C3.317,0.85 3.784,1.033 4.151,1.4L10.001,7.25L15.784,1.4C16.153,1.033 16.623,0.85 17.193,0.85C17.763,0.85 18.232,1.033 18.601,1.4C19.001,1.8 19.201,2.275 19.201,2.825C19.201,3.375 19.001,3.833 18.601,4.2L12.751,10L18.601,15.833C18.967,16.202 19.151,16.671 19.151,17.241C19.151,17.811 18.967,18.281 18.601,18.65C18.201,19.05 17.726,19.25 17.176,19.25C16.626,19.25 16.167,19.05 15.801,18.65L10.001,12.8Z" fill="#000000"/>
</svg>
