<svg width="18" height="18" viewBox="0 0 18 18" fill="none" xmlns="http://www.w3.org/2000/svg" xmlns:xlink="http://www.w3.org/1999/xlink">
<path d="M17.884,8.429C17.884,3.477 13.864,-0.543 8.912,-0.543C3.96,-0.543 -0.06,3.477 -0.06,8.429C-0.06,12.771 3.027,16.387 7.118,17.221L7.118,11.121L5.323,11.121L5.323,8.429L7.118,8.429L7.118,6.186C7.118,4.455 8.526,3.046 10.258,3.046L12.501,3.046L12.501,5.738L10.706,5.738C10.213,5.738 9.809,6.141 9.809,6.635L9.809,8.429L12.501,8.429L12.501,11.121L9.809,11.121L9.809,17.356C14.34,16.907 17.884,13.085 17.884,8.429Z" fill="#FFFFFF"/>
</svg>
