<svg width="30" height="24" viewBox="0 0 30 24" fill="none" xmlns="http://www.w3.org/2000/svg" xmlns:xlink="http://www.w3.org/1999/xlink">
<path d="M14.66,5.216C19.092,5.216 23.354,6.919 26.566,9.972C26.808,10.208 27.194,10.205 27.433,9.966L29.745,7.632C29.865,7.511 29.933,7.347 29.932,7.175C29.931,7.004 29.861,6.84 29.739,6.72C21.309,-1.359 8.009,-1.359 -0.421,6.72C-0.543,6.84 -0.612,7.004 -0.613,7.175C-0.614,7.346 -0.547,7.511 -0.427,7.632L1.886,9.966C2.124,10.206 2.511,10.209 2.753,9.972C5.965,6.919 10.228,5.216 14.66,5.216ZM14.66,12.807C17.095,12.807 19.443,13.712 21.248,15.346C21.492,15.578 21.877,15.573 22.115,15.335L24.424,13.002C24.546,12.879 24.613,12.713 24.611,12.541C24.61,12.368 24.539,12.204 24.415,12.084C18.918,6.971 10.406,6.971 4.91,12.084C4.786,12.204 4.715,12.368 4.713,12.541C4.712,12.714 4.779,12.88 4.901,13.002L7.21,15.335C7.448,15.573 7.832,15.578 8.077,15.346C9.88,13.713 12.227,12.808 14.66,12.807ZM19.286,17.915C19.289,18.088 19.221,18.255 19.098,18.376L15.103,22.407C14.986,22.526 14.827,22.592 14.66,22.592C14.493,22.592 14.334,22.526 14.217,22.407L10.221,18.376C10.098,18.254 10.03,18.088 10.034,17.915C10.037,17.742 10.112,17.578 10.241,17.462C12.792,15.304 16.528,15.304 19.079,17.462C19.208,17.578 19.282,17.742 19.286,17.915Z" clip-rule="evenodd" fill-rule="evenodd" fill="#FFFFFF"/>
</svg>
