<svg width="30" height="24" viewBox="0 0 30 24" fill="none" xmlns="http://www.w3.org/2000/svg" xmlns:xlink="http://www.w3.org/1999/xlink">
<path d="M14.66,5.215C19.092,5.215 23.354,6.918 26.566,9.971C26.808,10.207 27.194,10.204 27.433,9.965L29.745,7.631C29.865,7.51 29.933,7.346 29.932,7.174C29.931,7.003 29.861,6.839 29.739,6.719C21.309,-1.36 8.009,-1.36 -0.421,6.719C-0.543,6.839 -0.612,7.003 -0.613,7.174C-0.614,7.345 -0.547,7.51 -0.427,7.631L1.886,9.965C2.124,10.205 2.511,10.208 2.753,9.971C5.965,6.918 10.228,5.215 14.66,5.215ZM14.66,12.806C17.095,12.806 19.443,13.711 21.248,15.345C21.492,15.577 21.877,15.572 22.115,15.334L24.424,13.001C24.546,12.878 24.613,12.712 24.611,12.54C24.61,12.367 24.539,12.203 24.415,12.083C18.918,6.97 10.406,6.97 4.91,12.083C4.786,12.203 4.715,12.367 4.713,12.54C4.712,12.713 4.779,12.879 4.901,13.001L7.21,15.334C7.448,15.572 7.832,15.577 8.077,15.345C9.88,13.712 12.227,12.807 14.66,12.806ZM19.286,17.914C19.289,18.087 19.221,18.254 19.098,18.375L15.103,22.406C14.986,22.525 14.827,22.591 14.66,22.591C14.493,22.591 14.334,22.525 14.217,22.406L10.221,18.375C10.098,18.254 10.03,18.087 10.034,17.914C10.037,17.741 10.112,17.577 10.241,17.461C12.792,15.303 16.528,15.303 19.079,17.461C19.208,17.577 19.282,17.741 19.286,17.914Z" clip-rule="evenodd" fill-rule="evenodd" fill="#FFFFFF"/>
</svg>
